<mxfile host="app.diagrams.net" agent="Mozilla/5.0 (X11; Linux x86_64; rv:141.0) Gecko/20100101 Firefox/141.0" version="28.1.0">
  <diagram name="Page-1" id="K3jDQOZ3eiWe29lV1Vd4">
    <mxGraphModel dx="961" dy="513" grid="1" gridSize="10" guides="1" tooltips="1" connect="1" arrows="1" fold="1" page="1" pageScale="1" pageWidth="850" pageHeight="1100" math="0" shadow="0">
      <root>
        <mxCell id="0" />
        <mxCell id="1" parent="0" />
        <mxCell id="yrP7KXh8y6IfMzEt6TzR-7" style="rounded=0;orthogonalLoop=1;jettySize=auto;html=1;entryX=0.336;entryY=1.005;entryDx=0;entryDy=0;exitX=0.254;exitY=0.057;exitDx=0;exitDy=0;curved=1;entryPerimeter=0;exitPerimeter=0;fontFamily=IBM Plex Sans;fontSource=https%3A%2F%2Ffonts.googleapis.com%2Fcss%3Ffamily%3DIBM%2BPlex%2BSans;fontStyle=0" edge="1" parent="1" source="yrP7KXh8y6IfMzEt6TzR-1" target="yrP7KXh8y6IfMzEt6TzR-2">
          <mxGeometry relative="1" as="geometry">
            <Array as="points">
              <mxPoint x="190" y="350" />
            </Array>
          </mxGeometry>
        </mxCell>
        <mxCell id="yrP7KXh8y6IfMzEt6TzR-1" value="&lt;div&gt;Server&lt;/div&gt;" style="ellipse;whiteSpace=wrap;html=1;aspect=fixed;fontFamily=IBM Plex Sans;fontSource=https%3A%2F%2Ffonts.googleapis.com%2Fcss%3Ffamily%3DIBM%2BPlex%2BSans;fontStyle=0" vertex="1" parent="1">
          <mxGeometry x="200" y="400" width="80" height="80" as="geometry" />
        </mxCell>
        <mxCell id="yrP7KXh8y6IfMzEt6TzR-10" style="edgeStyle=orthogonalEdgeStyle;rounded=0;orthogonalLoop=1;jettySize=auto;html=1;entryX=0;entryY=0.5;entryDx=0;entryDy=0;fontFamily=IBM Plex Sans;fontSource=https%3A%2F%2Ffonts.googleapis.com%2Fcss%3Ffamily%3DIBM%2BPlex%2BSans;fontStyle=0" edge="1" parent="1" source="yrP7KXh8y6IfMzEt6TzR-2" target="yrP7KXh8y6IfMzEt6TzR-9">
          <mxGeometry relative="1" as="geometry" />
        </mxCell>
        <mxCell id="yrP7KXh8y6IfMzEt6TzR-2" value="&lt;div&gt;Sender&lt;/div&gt;" style="rounded=0;whiteSpace=wrap;html=1;fontFamily=IBM Plex Sans;fontSource=https%3A%2F%2Ffonts.googleapis.com%2Fcss%3Ffamily%3DIBM%2BPlex%2BSans;fontStyle=0" vertex="1" parent="1">
          <mxGeometry x="180" y="230" width="120" height="60" as="geometry" />
        </mxCell>
        <mxCell id="yrP7KXh8y6IfMzEt6TzR-8" style="rounded=0;orthogonalLoop=1;jettySize=auto;html=1;entryX=0.7;entryY=0.051;entryDx=0;entryDy=0;entryPerimeter=0;exitX=0.633;exitY=1.013;exitDx=0;exitDy=0;exitPerimeter=0;curved=1;fontFamily=IBM Plex Sans;fontSource=https%3A%2F%2Ffonts.googleapis.com%2Fcss%3Ffamily%3DIBM%2BPlex%2BSans;fontStyle=0" edge="1" parent="1" source="yrP7KXh8y6IfMzEt6TzR-2" target="yrP7KXh8y6IfMzEt6TzR-1">
          <mxGeometry relative="1" as="geometry">
            <Array as="points">
              <mxPoint x="280" y="350" />
            </Array>
          </mxGeometry>
        </mxCell>
        <mxCell id="yrP7KXh8y6IfMzEt6TzR-9" value="Receiver" style="rounded=0;whiteSpace=wrap;html=1;fontFamily=IBM Plex Sans;fontSource=https%3A%2F%2Ffonts.googleapis.com%2Fcss%3Ffamily%3DIBM%2BPlex%2BSans;fontStyle=0" vertex="1" parent="1">
          <mxGeometry x="425" y="230" width="120" height="60" as="geometry" />
        </mxCell>
        <mxCell id="yrP7KXh8y6IfMzEt6TzR-14" value="" style="rounded=0;whiteSpace=wrap;html=1;fillColor=none;dashed=1;fontFamily=IBM Plex Sans;fontSource=https%3A%2F%2Ffonts.googleapis.com%2Fcss%3Ffamily%3DIBM%2BPlex%2BSans;fontStyle=0" vertex="1" parent="1">
          <mxGeometry x="110" y="190" width="520" height="140" as="geometry" />
        </mxCell>
        <mxCell id="yrP7KXh8y6IfMzEt6TzR-15" value="&lt;font style=&quot;font-size: 41px;&quot;&gt;Listener&lt;/font&gt;&amp;nbsp;(can be one or more)" style="text;html=1;align=center;verticalAlign=middle;resizable=0;points=[];autosize=1;strokeColor=none;fillColor=none;fontFamily=IBM Plex Sans;fontSource=https%3A%2F%2Ffonts.googleapis.com%2Fcss%3Ffamily%3DIBM%2BPlex%2BSans;fontStyle=0" vertex="1" parent="1">
          <mxGeometry x="220" y="130" width="300" height="60" as="geometry" />
        </mxCell>
      </root>
    </mxGraphModel>
  </diagram>
</mxfile>
